<svg width="227" height="52" viewBox="0 0 227 52" fill="none" xmlns="http://www.w3.org/2000/svg">
  <path d="M59.097 29.2194V41.7748C59.097 44.0156 60.1102 45.4274 62.3817 45.4274C64.6532 45.4274 65.7277 44.0156 65.7277 41.7748V29.2194H71.7444V41.7748C71.7444 47.9449 67.4467 51.0762 62.259 51.0762C57.0402 51.0762 53.111 47.9449 53.111 41.7748V29.2194H59.097Z" fill="#000046"/>
  <path d="M74.4648 29.219H80.4815V37.4459C84.5027 37.4459 87.0508 34.3146 87.3268 29.219H93.8354C93.3743 34.4992 90.5502 38.4897 86.2836 39.9327C90.6115 40.8839 93.6815 44.9363 94.5412 50.8611H88.0327C87.6954 45.4889 84.8713 42.3576 80.4815 42.3576V50.8611H74.4648V29.219Z" fill="#000046"/>
  <path d="M64.07 11.9749C64.07 10.5319 63.3335 9.61131 61.5219 9.61131H59.1277V14.3077H61.5219C63.3335 14.3077 64.07 13.3866 64.07 11.9749ZM59.1277 19.0967V26.4026H53.111V4.761H62.1052C67.4773 4.761 70.2094 7.80032 70.2094 11.9749C70.2094 15.7507 67.6 19.0967 62.1052 19.0967H59.1277Z" fill="#000046"/>
  <path d="M83.178 17.8075C83.178 15.5973 81.8275 14.2162 80.0472 14.2162C78.2663 14.2162 76.9466 15.5973 76.9466 17.8075C76.9466 20.0177 78.2663 21.3375 80.0472 21.3375C81.8275 21.3375 83.178 20.0177 83.178 17.8075ZM70.8071 17.8075C70.8071 13.0191 73.3854 8.96664 77.929 8.96664C80.4459 8.96664 82.4414 10.471 83.178 13.0497V9.18131H89.1947V26.403H86.1247C84.2217 26.403 83.178 25.3592 83.178 23.4557V22.5658C82.4414 25.144 80.4459 26.6177 77.929 26.6177C73.3854 26.6177 70.8071 22.5965 70.8071 17.8075Z" fill="#000046"/>
  <path d="M91.9163 9.18143H97.933V13.5099C98.6082 10.7159 100.45 9.0281 103.52 9.0281V15.3515C103.029 15.2289 102.568 15.1982 102.139 15.1982C99.9587 15.1982 97.933 16.8252 97.933 19.6186V26.4026H91.9163V9.18143Z" fill="#000046"/>
  <path d="M105.485 3.6873H111.502V15.6595C114.142 14.9842 116.506 12.0983 117.058 9.18217H123.474C122.461 12.866 119.422 16.5187 116.168 17.8385C119.606 18.6676 122.768 22.5048 123.597 26.4033H117.12C116.383 23.0573 114.204 20.6631 111.502 20.2639V26.4033H105.485V3.6873Z" fill="#000046"/>
  <path d="M125.185 9.18143H131.202V26.4026H125.185V9.18143ZM124.448 4.26977C124.448 2.33557 125.952 0.92379 128.224 0.92379C130.464 0.92379 131.968 2.33557 131.968 4.26977C131.968 6.17277 130.464 7.55445 128.224 7.55445C125.952 7.55445 124.448 6.17277 124.448 4.26977Z" fill="#000046"/>
  <path d="M133.916 9.18143H139.933V12.896C140.669 10.4092 142.849 8.96676 145.243 8.96676C149.173 8.96676 151.659 11.8215 151.659 16.3033V26.4026H145.642V17.1012C145.642 15.1363 144.538 13.9392 142.819 13.9392C140.976 13.9392 139.933 15.4435 139.933 17.4084V26.4026H133.916V9.18143Z" fill="#000046"/>
  <path d="M153.222 21.9514L158.717 20.6929C158.962 21.7055 159.822 22.3506 161.081 22.3506C162.094 22.3506 162.708 21.8287 162.708 21.2148C162.708 18.6974 153.498 20.8463 153.498 14.5228C153.498 11.5142 156.016 8.9661 160.681 8.9661C164.611 8.9661 167.128 10.839 167.988 13.6631L162.83 15.0442C162.616 13.9391 161.848 13.2639 160.559 13.2639C159.576 13.2639 159.054 13.7244 159.054 14.369C159.054 16.8251 168.294 14.8908 168.294 21.4295C168.294 24.5301 165.44 26.6177 161.111 26.6177C157.213 26.6177 154.235 24.8675 153.222 21.9514Z" fill="#000046"/>
  <path d="M181.382 17.7768C181.382 15.3213 180 14.1855 178.466 14.1855C176.931 14.1855 175.58 15.3213 175.58 17.7768C175.58 20.2636 176.87 21.3994 178.435 21.3994C179.97 21.3994 181.382 20.2636 181.382 17.7768ZM169.441 17.7768C169.441 12.3126 173.339 8.96664 178.466 8.96664C183.592 8.96664 187.491 12.3126 187.491 17.7768C187.491 23.2717 183.562 26.6177 178.435 26.6177C173.308 26.6177 169.441 23.2717 169.441 17.7768Z" fill="#000046"/>
  <path d="M189.222 9.18143H195.239V12.896C195.975 10.4092 198.155 8.96676 200.55 8.96676C204.479 8.96676 206.966 11.8215 206.966 16.3033V26.4026H200.948V17.1012C200.948 15.1363 199.844 13.9392 198.125 13.9392C196.283 13.9392 195.239 15.4435 195.239 17.4084V26.4026H189.222V9.18143Z" fill="#000046"/>
  <path d="M211.601 6.63025C211.182 7.00795 210.567 7.1828 210.008 7.1828C208.471 7.1828 207.185 6.36877 207.185 4.42111C207.185 2.50251 208.61 1.22362 210.483 1.22362C212.579 1.22362 214.033 3.25844 214.033 5.35136C214.033 9.76964 210.846 11.3977 207.045 11.3977V9.12992C209.673 9.12992 211.154 7.88009 211.601 6.63025Z" fill="#000046"/>
  <path d="M211.161 21.9514L216.656 20.6929C216.901 21.7055 217.761 22.3506 219.02 22.3506C220.033 22.3506 220.647 21.8287 220.647 21.2148C220.647 18.6974 211.437 20.8463 211.437 14.5228C211.437 11.5142 213.955 8.9661 218.62 8.9661C222.55 8.9661 225.067 10.839 225.927 13.6631L220.769 15.0442C220.555 13.9391 219.787 13.2639 218.498 13.2639C217.515 13.2639 216.993 13.7244 216.993 14.369C216.993 16.8251 226.233 14.8908 226.233 21.4295C226.233 24.5301 223.379 26.6177 219.05 26.6177C215.152 26.6177 212.174 24.8675 211.161 21.9514Z" fill="#000046"/>
  <path d="M22.0709 3.68691H0V50.8611H23.2384C14.8135 45.8628 13.2435 35.4047 15.5818 30.4397C11.7032 27.8981 10.4345 22.7212 12.7819 18.6559L17.254 10.9099C21.2063 13.1922 22.7634 18.1152 20.9265 22.1907C23.5376 18.5617 28.5794 17.4491 32.5318 19.7309L28.0602 27.4768C25.7532 31.4722 20.7705 32.9782 16.6691 31.0466C15.2896 35.5887 18.1729 42.6508 27.5464 42.6508C35.8003 42.6508 44.2565 34.249 44.4835 23.5385C44.7332 11.7638 35.3844 3.68691 22.0709 3.68691Z" fill="#00BFFF"/>
</svg>
